<svg width="74" height="72" viewBox="0 0 74 72" fill="none" xmlns="http://www.w3.org/2000/svg">
<path d="M32.8683 0C44.215 0 61.2967 3.62865 69.3133 11.8409C71.3483 13.9416 74 18.0159 74 24.0637C74 34.7586 65.675 51.1194 56.5483 60.6684C51.8 65.5703 44.2767 72 34.1017 72C24.1733 72 16.5883 64.9973 14.43 62.7692C6.04333 54.0477 0 40.87 0 28.5199C0 20.7533 2.15833 13.9416 7.585 8.27586C12.6417 2.99204 21.3367 0 32.8683 0ZM46.9283 42.5888C50.7517 38.6419 51.8 33.74 51.8 31.0663C51.8 29.0928 51.3067 26.2281 48.9633 23.809C45.325 20.053 41.3783 19.0345 37 19.0345C31.5117 19.0345 27.8117 20.817 25.345 23.3634C23.4333 25.3369 21.7683 28.4562 21.7683 32.8488C21.7683 37.2414 23.9883 41.443 26.455 43.9894C28.7367 46.3448 32.2517 48.0637 35.89 48.0637C39.5283 48.0637 43.105 46.5358 46.9283 42.5888Z" fill="#323232"/>
</svg>
